# xmcd
#
# Track frame offsets: 
#        150
#        13951
#        27155
#        49352
#        74515
#
# Disc length: 1544 seconds
#
# Revision: 2
# Processed by: cddbd v1.5.2PL0 Copyright (c) Steve Scherf et al.
# Submitted via: ExactAudioCopy v0.95b4
#
DISCID=44060605
DTITLE=Marquess - La Histeria
DYEAR=2008
DGENRE=Pop
TTITLE0=La Histeria (Radio Version)
TTITLE1=La Histeria (Acoustic Version)
TTITLE2=La Histeria (Extended Version)
TTITLE3=La Histeria (Instrumental Version)
TTITLE4=Video
EXTD=
EXTT0=
EXTT1=
EXTT2=
EXTT3=
EXTT4=
PLAYORDER=
